<svg width="261" height="57" viewBox="0 0 261 57" fill="none" xmlns="http://www.w3.org/2000/svg">
<path d="M97.2313 55.259V56H87.2863V55.259C87.6503 55.259 87.9883 55.259 88.3003 55.259C88.6383 55.233 88.9373 55.168 89.1973 55.064C89.4573 54.96 89.6523 54.817 89.7823 54.635C89.9383 54.427 90.0163 54.141 90.0163 53.777C90.0163 53.465 89.9123 53.049 89.7043 52.529C89.5223 52.009 89.3793 51.606 89.2753 51.32L87.6763 47.576H77.4583L75.6643 52.139C75.4563 52.685 75.3523 53.179 75.3523 53.621C75.3523 54.037 75.4433 54.362 75.6253 54.596C75.8333 54.804 76.0803 54.96 76.3663 55.064C76.6523 55.168 76.9383 55.233 77.2243 55.259C77.5363 55.259 77.7963 55.259 78.0043 55.259V56H70.2823V55.259C70.5943 55.233 70.9063 55.181 71.2183 55.103C71.5563 54.999 71.9073 54.765 72.2713 54.401C72.5053 54.167 72.7393 53.829 72.9733 53.387C73.2333 52.919 73.4933 52.425 73.7533 51.905C74.0133 51.385 74.2603 50.865 74.4943 50.345C74.7283 49.799 74.9363 49.305 75.1183 48.863L83.2303 29.714H84.0103L93.7213 51.866C94.0333 52.568 94.3063 53.14 94.5403 53.582C94.8003 54.024 95.0473 54.362 95.2813 54.596C95.5413 54.83 95.8143 54.999 96.1003 55.103C96.4123 55.181 96.7893 55.233 97.2313 55.259ZM78.1213 45.977H87.1303L82.6063 35.252L78.1213 45.977ZM110.947 45.938H118.786V46.562C117.876 46.614 117.304 46.796 117.07 47.108C116.836 47.42 116.719 47.81 116.719 48.278V54.128C116.563 54.31 116.277 54.531 115.861 54.791C115.445 55.025 114.899 55.259 114.223 55.493C113.573 55.727 112.793 55.922 111.883 56.078C110.999 56.234 109.998 56.312 108.88 56.312C107.84 56.312 106.722 56.169 105.526 55.883C104.33 55.597 103.212 55.077 102.172 54.323C101.158 53.569 100.313 52.542 99.6368 51.242C98.9608 49.916 98.6228 48.226 98.6228 46.172C98.6228 45.132 98.8308 44.053 99.2468 42.935C99.6628 41.817 100.3 40.803 101.158 39.893C102.016 38.957 103.095 38.203 104.395 37.631C105.721 37.033 107.281 36.734 109.075 36.734C109.777 36.734 110.388 36.799 110.908 36.929C111.454 37.033 111.935 37.15 112.351 37.28C112.767 37.41 113.131 37.54 113.443 37.67C113.755 37.774 114.015 37.826 114.223 37.826C114.691 37.826 115.003 37.709 115.159 37.475C115.341 37.241 115.471 36.994 115.549 36.734H116.056L116.329 42.428H115.705C115.523 41.83 115.224 41.258 114.808 40.712C114.418 40.14 113.924 39.646 113.326 39.23C112.754 38.788 112.104 38.45 111.376 38.216C110.674 37.956 109.933 37.826 109.153 37.826C107.957 37.826 106.93 38.099 106.072 38.645C105.24 39.165 104.551 39.841 104.005 40.673C103.459 41.479 103.056 42.389 102.796 43.403C102.562 44.391 102.445 45.34 102.445 46.25C102.445 47.628 102.614 48.876 102.952 49.994C103.316 51.086 103.81 52.022 104.434 52.802C105.058 53.582 105.799 54.18 106.657 54.596C107.515 55.012 108.451 55.22 109.465 55.22C110.869 55.22 111.87 55.064 112.468 54.752C113.066 54.414 113.365 53.894 113.365 53.192V48.512C113.365 48.044 113.209 47.615 112.897 47.225C112.585 46.835 111.935 46.614 110.947 46.562V45.938ZM134.178 42.623V49.487H133.554C133.476 48.395 133.164 47.628 132.618 47.186C132.098 46.718 131.188 46.484 129.888 46.484H126.69V53.816C126.69 54.05 126.729 54.245 126.807 54.401C126.885 54.531 127.028 54.635 127.236 54.713C127.47 54.791 127.782 54.843 128.172 54.869C128.588 54.895 129.134 54.908 129.81 54.908C131.11 54.908 132.163 54.843 132.969 54.713C133.775 54.557 134.425 54.323 134.919 54.011C135.439 53.699 135.842 53.283 136.128 52.763C136.414 52.243 136.7 51.606 136.986 50.852H137.766L136.518 56H120.372V55.376C121.1 55.376 121.659 55.298 122.049 55.142C122.439 54.986 122.725 54.752 122.907 54.44C123.115 54.128 123.232 53.738 123.258 53.27C123.31 52.802 123.336 52.256 123.336 51.632V40.01C123.336 39.464 123.245 39.035 123.063 38.723C122.881 38.411 122.647 38.177 122.361 38.021C122.101 37.865 121.789 37.774 121.425 37.748C121.061 37.696 120.71 37.67 120.372 37.67V37.046H135.855L136.128 41.57L135.348 41.609C135.322 41.011 135.231 40.504 135.075 40.088C134.919 39.646 134.646 39.282 134.256 38.996C133.866 38.71 133.32 38.502 132.618 38.372C131.942 38.216 131.058 38.138 129.966 38.138C129.264 38.138 128.692 38.151 128.25 38.177C127.834 38.203 127.509 38.255 127.275 38.333C127.041 38.385 126.885 38.476 126.807 38.606C126.729 38.71 126.69 38.853 126.69 39.035V45.392H129.888C131.188 45.392 132.098 45.21 132.618 44.846C133.164 44.456 133.476 43.715 133.554 42.623H134.178ZM158.124 56L144.63 41.18V52.802C144.63 53.738 144.825 54.401 145.215 54.791C145.605 55.155 146.398 55.35 147.594 55.376V56H140.106V55.376C141.302 55.35 142.095 55.155 142.485 54.791C142.875 54.401 143.07 53.738 143.07 52.802V39.542L142.251 38.684C141.705 38.086 140.925 37.748 139.911 37.67V37.046H145.215L157.188 50.189V40.088C157.188 39.152 156.967 38.528 156.525 38.216C156.109 37.904 155.329 37.722 154.185 37.67V37.046H161.595V37.67C161.049 37.696 160.581 37.748 160.191 37.826C159.827 37.904 159.541 38.034 159.333 38.216C159.125 38.398 158.969 38.645 158.865 38.957C158.787 39.243 158.748 39.62 158.748 40.088V56H158.124Z" fill="#1E2F22"/>
<path d="M188.556 55.259V56H182.277L172.995 43.988L170.811 44.066V51.749C170.811 52.399 170.85 52.945 170.928 53.387C171.006 53.803 171.162 54.154 171.396 54.44C171.63 54.7 171.981 54.895 172.449 55.025C172.917 55.155 173.541 55.233 174.321 55.259V56H163.518V55.259C164.298 55.207 164.909 55.116 165.351 54.986C165.819 54.83 166.157 54.609 166.365 54.323C166.573 54.011 166.703 53.621 166.755 53.153C166.807 52.659 166.833 52.048 166.833 51.32V34.433C166.833 33.705 166.781 33.133 166.677 32.717C166.599 32.275 166.43 31.937 166.17 31.703C165.936 31.469 165.598 31.3 165.156 31.196C164.74 31.092 164.194 31.001 163.518 30.923V30.182H174.282C175.14 30.182 176.141 30.26 177.285 30.416C178.429 30.546 179.508 30.858 180.522 31.352C181.562 31.82 182.433 32.509 183.135 33.419C183.837 34.303 184.188 35.499 184.188 37.007C184.188 38.307 183.915 39.373 183.369 40.205C182.823 41.011 182.16 41.648 181.38 42.116C180.626 42.584 179.846 42.922 179.04 43.13C178.26 43.312 177.623 43.455 177.129 43.559L185.163 53.426C185.605 53.946 186.073 54.375 186.567 54.713C187.087 55.025 187.75 55.207 188.556 55.259ZM170.811 33.029V42.623C171.357 42.623 171.955 42.61 172.605 42.584C173.281 42.558 173.957 42.493 174.633 42.389C175.309 42.259 175.959 42.077 176.583 41.843C177.233 41.609 177.805 41.284 178.299 40.868C178.793 40.452 179.183 39.932 179.469 39.308C179.781 38.658 179.937 37.865 179.937 36.929C179.937 35.629 179.664 34.628 179.118 33.926C178.572 33.198 177.922 32.665 177.168 32.327C176.44 31.989 175.699 31.794 174.945 31.742C174.191 31.664 173.619 31.625 173.229 31.625C172.189 31.625 171.526 31.716 171.24 31.898C170.954 32.08 170.811 32.457 170.811 33.029ZM189.414 37.67V37.046H198.618V37.67C197.474 37.696 196.707 37.904 196.317 38.294C195.927 38.658 195.732 39.308 195.732 40.244V52.802C195.732 53.738 195.94 54.401 196.356 54.791C196.772 55.155 197.552 55.35 198.696 55.376V56H189.492V55.376C190.636 55.35 191.403 55.155 191.793 54.791C192.183 54.401 192.378 53.738 192.378 52.802V40.244C192.378 39.308 192.17 38.658 191.754 38.294C191.338 37.904 190.558 37.696 189.414 37.67ZM200.737 37.67V37.046H208.381V37.67C207.835 37.67 207.406 37.709 207.094 37.787C206.808 37.865 206.665 38.086 206.665 38.45C206.665 38.814 206.704 39.126 206.782 39.386C206.86 39.646 206.964 39.919 207.094 40.205L211.774 51.242L215.869 40.673C216.051 40.231 216.181 39.854 216.259 39.542C216.363 39.204 216.415 38.892 216.415 38.606C216.415 38.294 216.298 38.06 216.064 37.904C215.83 37.748 215.349 37.67 214.621 37.67V37.046H220.159V37.67C219.795 37.722 219.483 37.787 219.223 37.865C218.989 37.943 218.781 38.06 218.599 38.216C218.417 38.372 218.248 38.58 218.092 38.84C217.962 39.1 217.819 39.438 217.663 39.854L211.189 56.312H210.565L203.818 40.946C203.48 40.166 203.168 39.568 202.882 39.152C202.622 38.71 202.362 38.385 202.102 38.177C201.868 37.943 201.634 37.8 201.4 37.748C201.192 37.696 200.971 37.67 200.737 37.67ZM236.058 42.623V49.487H235.434C235.356 48.395 235.044 47.628 234.498 47.186C233.978 46.718 233.068 46.484 231.768 46.484H228.57V53.816C228.57 54.05 228.609 54.245 228.687 54.401C228.765 54.531 228.908 54.635 229.116 54.713C229.35 54.791 229.662 54.843 230.052 54.869C230.468 54.895 231.014 54.908 231.69 54.908C232.99 54.908 234.043 54.843 234.849 54.713C235.655 54.557 236.305 54.323 236.799 54.011C237.319 53.699 237.722 53.283 238.008 52.763C238.294 52.243 238.58 51.606 238.866 50.852H239.646L238.398 56H222.252V55.376C222.98 55.376 223.539 55.298 223.929 55.142C224.319 54.986 224.605 54.752 224.787 54.44C224.995 54.128 225.112 53.738 225.138 53.27C225.19 52.802 225.216 52.256 225.216 51.632V40.01C225.216 39.464 225.125 39.035 224.943 38.723C224.761 38.411 224.527 38.177 224.241 38.021C223.981 37.865 223.669 37.774 223.305 37.748C222.941 37.696 222.59 37.67 222.252 37.67V37.046H237.735L238.008 41.57L237.228 41.609C237.202 41.011 237.111 40.504 236.955 40.088C236.799 39.646 236.526 39.282 236.136 38.996C235.746 38.71 235.2 38.502 234.498 38.372C233.822 38.216 232.938 38.138 231.846 38.138C231.144 38.138 230.572 38.151 230.13 38.177C229.714 38.203 229.389 38.255 229.155 38.333C228.921 38.385 228.765 38.476 228.687 38.606C228.609 38.71 228.57 38.853 228.57 39.035V45.392H231.768C233.068 45.392 233.978 45.21 234.498 44.846C235.044 44.456 235.356 43.715 235.434 42.623H236.058ZM244.404 52.49V40.985C244.404 40.257 244.339 39.672 244.209 39.23C244.105 38.788 243.936 38.45 243.702 38.216C243.468 37.982 243.156 37.839 242.766 37.787C242.402 37.709 241.96 37.67 241.44 37.67V37.046H250.02C250.982 37.046 251.892 37.137 252.75 37.319C253.608 37.475 254.362 37.748 255.012 38.138C255.662 38.528 256.169 39.048 256.533 39.698C256.923 40.348 257.118 41.154 257.118 42.116C257.118 43.416 256.689 44.469 255.831 45.275C254.999 46.055 253.816 46.588 252.282 46.874L256.806 52.568C257.456 53.374 258.002 53.998 258.444 54.44C258.886 54.856 259.445 55.168 260.121 55.376V56H255.519L248.928 47.108H247.758V52.49C247.758 53.166 247.81 53.699 247.914 54.089C248.044 54.453 248.226 54.739 248.46 54.947C248.694 55.129 248.993 55.246 249.357 55.298C249.747 55.35 250.215 55.376 250.761 55.376V56H241.44V55.376C241.934 55.376 242.363 55.35 242.727 55.298C243.117 55.246 243.429 55.129 243.663 54.947C243.923 54.739 244.105 54.453 244.209 54.089C244.339 53.699 244.404 53.166 244.404 52.49ZM247.758 39.308V46.172H248.889C249.461 46.172 250.02 46.094 250.566 45.938C251.112 45.756 251.593 45.509 252.009 45.197C252.425 44.885 252.75 44.508 252.984 44.066C253.244 43.598 253.374 43.065 253.374 42.467C253.374 40.829 253.036 39.672 252.36 38.996C251.71 38.32 250.774 37.982 249.552 37.982C248.876 37.982 248.408 38.099 248.148 38.333C247.888 38.541 247.758 38.866 247.758 39.308Z" fill="#BF9156"/>
<path fill-rule="evenodd" clip-rule="evenodd" d="M13.1248 15.1686C11.7609 18.0507 10.998 21.2725 10.998 24.6722C10.998 26.0566 11.1247 27.4115 11.367 28.726L16.7824 30.7998L26.9094 22.3799L19.4208 17.7576C18.4226 18.4177 17.5365 18.7775 17.3918 18.5696C17.2652 18.3869 17.7517 17.8209 18.5311 17.2097L14.1729 14.5188C14.1629 14.5251 14.1534 14.5319 14.1439 14.5387C14.1344 14.5454 14.125 14.5522 14.115 14.5586C13.7682 14.7989 13.4297 15.0058 13.1248 15.1686ZM18.537 7.98135C21.9566 9.10292 25.7017 10.3428 29.141 11.4861C29.7287 11.0792 30.2188 10.741 30.2188 10.741L30.3001 9.40101L34.7615 6.31227L37.1214 9.7211L32.8084 12.7068C34.6584 13.3234 36.3167 13.8768 37.6585 14.3253C40.3345 12.5875 44.3875 9.96521 47.7706 7.82136C43.8735 4.45847 38.7966 2.42529 33.2449 2.42529C27.6065 2.42529 22.4579 4.52347 18.537 7.98135ZM52.0152 12.7276C48.4534 15.358 43.8781 18.6192 41.0348 20.633C41.025 21.2464 41.0142 21.9021 41.0024 22.5933L53.262 14.9575C52.8884 14.1883 52.4718 13.444 52.0152 12.7276ZM30.511 29.1277L30.1229 27.3204L18.7463 34.2665L18.6393 36.5219L30.511 29.1277ZM18.5445 38.5225L30.7661 30.3153L31.8131 35.1912L20.2015 42.6928C19.5804 42.2429 18.9844 41.7623 18.415 41.2529L18.5445 38.5225ZM47.6655 24.9499L46.044 22.6077L40.9389 26.1431C40.9563 25.2068 40.9726 24.3058 40.9876 23.4512L53.353 15.1474H53.3548C54.1071 16.7315 54.6803 18.4206 55.0402 20.1855L47.6655 24.9499ZM43.0316 28.8239L43.9427 29.1053L48.404 26.0166L47.969 25.3882L55.0867 20.4352C55.3526 21.8078 55.4918 23.2237 55.4918 24.6723C55.4918 25.1714 55.4755 25.6651 55.4412 26.1551L40.7376 35.6565C40.7809 33.87 40.8207 32.0771 40.8568 30.3373L43.0316 28.8239ZM32.082 36.4433L21.6821 43.6803C22.8756 44.4091 24.1415 45.0257 25.4688 45.5231L32.9886 40.6638L32.454 38.1744C31.8065 38.5216 31.3092 38.6699 31.2043 38.5198C31.0832 38.3444 31.5281 37.8145 32.2514 37.2322L32.082 36.4433ZM33.2909 42.0714L27.4294 46.1505C29.283 46.6514 31.2325 46.919 33.2452 46.919C33.6081 46.919 33.969 46.9104 34.3276 46.8932L33.7488 44.1982C32.9278 44.6882 32.255 44.9306 32.1302 44.7515C31.9892 44.549 32.604 43.8763 33.5318 43.1927L33.2909 42.0714ZM40.4404 45.7293C48.5857 42.9458 54.6036 35.568 55.398 26.6867L40.7066 36.9107C40.6282 40.0172 40.5393 43.062 40.4404 45.7293Z" fill="#BF9156"/>
<path d="M5.04 1.54629C5.28775 1.42875 17.5179 5.45424 27.2833 8.70031C27.871 8.29342 28.3611 7.95525 28.3611 7.95525L28.4424 6.61523L32.9038 3.52649L35.2637 6.93531L30.9507 9.92097C32.8007 10.5376 34.459 11.091 35.8008 11.5395C40.6545 8.38746 50.0383 2.32571 51.7382 1.48662C54.0493 0.345519 57.8397 -0.446559 58.2502 0.278608C58.6607 1.00377 56.648 4.32037 55.2754 5.91357C54.2356 7.11977 44.105 14.357 39.1771 17.8472C39.1518 19.4386 39.1192 21.3139 39.0812 23.3574L44.1863 19.8219L46.5463 23.2308L42.085 26.3195L40.8028 25.9235C40.8028 25.9235 39.848 26.5853 39.0071 27.1658C38.7792 38.2405 38.4031 51.666 37.9094 51.8975C37.0685 52.2935 34.0394 51.4146 34.0394 51.4146L31.8911 41.4124C31.07 41.9025 30.3973 42.1448 30.2725 41.9657C30.1315 41.7632 30.7463 41.0905 31.6741 40.4069L30.5962 35.3886C29.9488 35.7358 29.4515 35.8841 29.3466 35.734C29.2255 35.5586 29.6704 35.0287 30.3937 34.4464L28.2652 24.5346L16.8886 31.4807L16.2683 44.559L13.2791 45.8845L10.3585 36.083L12.3676 33.4916C12.3676 33.4916 9.5628 35.3434 9.14325 34.6002C8.7237 33.8569 10.9589 31.7917 10.9589 31.7917L8.36383 32.6579L0 27.1604L2.77408 23.361L14.9247 28.014L25.0517 19.5941L17.5631 14.9718C16.5649 15.6319 15.6788 15.9918 15.5341 15.7838C15.4075 15.6011 15.894 15.0351 16.6734 14.4239L12.3152 11.733C12.2953 11.7456 12.2772 11.7601 12.2573 11.7728C11.1795 12.5196 10.1813 12.9446 10.0257 12.7222C9.8865 12.5196 10.4905 11.8541 11.4092 11.176L3.28043 6.1577C3.28043 6.1577 4.62407 1.74341 5.04 1.5481V1.54629Z" fill="#1E2F22"/>
</svg>
